%TF.GenerationSoftware,KiCad,Pcbnew,9.0.1*%
%TF.CreationDate,2025-04-24T00:39:46+01:00*%
%TF.ProjectId,SparkFun_GNSS_mosaic-G5_P3_panelized,53706172-6b46-4756-9e5f-474e53535f6d,v01*%
%TF.SameCoordinates,Original*%
%TF.FileFunction,Soldermask,Bot*%
%TF.FilePolarity,Negative*%
%FSLAX46Y46*%
G04 Gerber Fmt 4.6, Leading zero omitted, Abs format (unit mm)*
G04 Created by KiCad (PCBNEW 9.0.1) date 2025-04-24 00:39:46*
%MOMM*%
%LPD*%
G01*
G04 APERTURE LIST*
G04 Aperture macros list*
%AMRoundRect*
0 Rectangle with rounded corners*
0 $1 Rounding radius*
0 $2 $3 $4 $5 $6 $7 $8 $9 X,Y pos of 4 corners*
0 Add a 4 corners polygon primitive as box body*
4,1,4,$2,$3,$4,$5,$6,$7,$8,$9,$2,$3,0*
0 Add four circle primitives for the rounded corners*
1,1,$1+$1,$2,$3*
1,1,$1+$1,$4,$5*
1,1,$1+$1,$6,$7*
1,1,$1+$1,$8,$9*
0 Add four rect primitives between the rounded corners*
20,1,$1+$1,$2,$3,$4,$5,0*
20,1,$1+$1,$4,$5,$6,$7,0*
20,1,$1+$1,$6,$7,$8,$9,0*
20,1,$1+$1,$8,$9,$2,$3,0*%
G04 Aperture macros list end*
%ADD10C,0.000000*%
%ADD11C,1.979600*%
%ADD12C,0.750000*%
%ADD13O,1.700000X1.100000*%
%ADD14O,2.200000X1.100000*%
%ADD15C,3.200000*%
%ADD16RoundRect,0.050000X-2.000000X0.750000X-2.000000X-0.750000X2.000000X-0.750000X2.000000X0.750000X0*%
%ADD17RoundRect,0.675000X-0.000010X-0.000010X0.000010X-0.000010X0.000010X0.000010X-0.000010X0.000010X0*%
%ADD18RoundRect,0.050000X-0.635000X0.330200X-0.635000X-0.330200X0.635000X-0.330200X0.635000X0.330200X0*%
%ADD19RoundRect,0.050000X0.635000X-0.330200X0.635000X0.330200X-0.635000X0.330200X-0.635000X-0.330200X0*%
%ADD20C,3.000000*%
%ADD21RoundRect,0.050000X0.330200X0.635000X-0.330200X0.635000X-0.330200X-0.635000X0.330200X-0.635000X0*%
%ADD22RoundRect,0.558000X-0.000010X-0.000010X0.000010X-0.000010X0.000010X0.000010X-0.000010X0.000010X0*%
%ADD23RoundRect,0.050000X-0.330200X-0.635000X0.330200X-0.635000X0.330200X0.635000X-0.330200X0.635000X0*%
%ADD24C,0.600000*%
G04 APERTURE END LIST*
D10*
%TO.C,JP4*%
G36*
X5447500Y29476700D02*
G01*
X4966500Y29476700D01*
X4966500Y29984700D01*
X5447500Y29984700D01*
X5447500Y29476700D01*
G37*
G36*
X56747500Y73156700D02*
G01*
X56266500Y73156700D01*
X56266500Y73664700D01*
X56747500Y73664700D01*
X56747500Y73156700D01*
G37*
G36*
X5447500Y73156700D02*
G01*
X4966500Y73156700D01*
X4966500Y73664700D01*
X5447500Y73664700D01*
X5447500Y73156700D01*
G37*
G36*
X56747500Y29476700D02*
G01*
X56266500Y29476700D01*
X56266500Y29984700D01*
X56747500Y29984700D01*
X56747500Y29476700D01*
G37*
%TO.C,VREF.1*%
G36*
X28079700Y11062500D02*
G01*
X27571700Y11062500D01*
X27571700Y11543500D01*
X28079700Y11543500D01*
X28079700Y11062500D01*
G37*
G36*
X79379700Y11062500D02*
G01*
X78871700Y11062500D01*
X78871700Y11543500D01*
X79379700Y11543500D01*
X79379700Y11062500D01*
G37*
G36*
X28079700Y54742500D02*
G01*
X27571700Y54742500D01*
X27571700Y55223500D01*
X28079700Y55223500D01*
X28079700Y54742500D01*
G37*
G36*
X79379700Y54742500D02*
G01*
X78871700Y54742500D01*
X78871700Y55223500D01*
X79379700Y55223500D01*
X79379700Y54742500D01*
G37*
%TO.C,JP3*%
G36*
X37362000Y34036000D02*
G01*
X36881000Y34036000D01*
X36881000Y34544000D01*
X37362000Y34544000D01*
X37362000Y34036000D01*
G37*
G36*
X37362000Y77716000D02*
G01*
X36881000Y77716000D01*
X36881000Y78224000D01*
X37362000Y78224000D01*
X37362000Y77716000D01*
G37*
G36*
X88662000Y34036000D02*
G01*
X88181000Y34036000D01*
X88181000Y34544000D01*
X88662000Y34544000D01*
X88662000Y34036000D01*
G37*
G36*
X88662000Y77716000D02*
G01*
X88181000Y77716000D01*
X88181000Y78224000D01*
X88662000Y78224000D01*
X88662000Y77716000D01*
G37*
%TO.C,JP7*%
G36*
X1480750Y12446000D02*
G01*
X999750Y12446000D01*
X999750Y12954000D01*
X1480750Y12954000D01*
X1480750Y12446000D01*
G37*
G36*
X52780750Y12446000D02*
G01*
X52299750Y12446000D01*
X52299750Y12954000D01*
X52780750Y12954000D01*
X52780750Y12446000D01*
G37*
G36*
X1480750Y56126000D02*
G01*
X999750Y56126000D01*
X999750Y56634000D01*
X1480750Y56634000D01*
X1480750Y56126000D01*
G37*
G36*
X52780750Y56126000D02*
G01*
X52299750Y56126000D01*
X52299750Y56634000D01*
X52780750Y56634000D01*
X52780750Y56126000D01*
G37*
%TO.C,JP8*%
G36*
X41807000Y34036000D02*
G01*
X41326000Y34036000D01*
X41326000Y34544000D01*
X41807000Y34544000D01*
X41807000Y34036000D01*
G37*
G36*
X93107000Y34036000D02*
G01*
X92626000Y34036000D01*
X92626000Y34544000D01*
X93107000Y34544000D01*
X93107000Y34036000D01*
G37*
G36*
X41807000Y77716000D02*
G01*
X41326000Y77716000D01*
X41326000Y78224000D01*
X41807000Y78224000D01*
X41807000Y77716000D01*
G37*
G36*
X93107000Y77716000D02*
G01*
X92626000Y77716000D01*
X92626000Y78224000D01*
X93107000Y78224000D01*
X93107000Y77716000D01*
G37*
%TO.C,REF.1*%
G36*
X24498300Y11062500D02*
G01*
X23990300Y11062500D01*
X23990300Y11543500D01*
X24498300Y11543500D01*
X24498300Y11062500D01*
G37*
G36*
X75798300Y11062500D02*
G01*
X75290300Y11062500D01*
X75290300Y11543500D01*
X75798300Y11543500D01*
X75798300Y11062500D01*
G37*
G36*
X24498300Y54742500D02*
G01*
X23990300Y54742500D01*
X23990300Y55223500D01*
X24498300Y55223500D01*
X24498300Y54742500D01*
G37*
G36*
X75798300Y54742500D02*
G01*
X75290300Y54742500D01*
X75290300Y55223500D01*
X75798300Y55223500D01*
X75798300Y54742500D01*
G37*
%TO.C,JP2*%
G36*
X35139500Y34036000D02*
G01*
X34658500Y34036000D01*
X34658500Y34544000D01*
X35139500Y34544000D01*
X35139500Y34036000D01*
G37*
G36*
X86439500Y34036000D02*
G01*
X85958500Y34036000D01*
X85958500Y34544000D01*
X86439500Y34544000D01*
X86439500Y34036000D01*
G37*
G36*
X35139500Y77716000D02*
G01*
X34658500Y77716000D01*
X34658500Y78224000D01*
X35139500Y78224000D01*
X35139500Y77716000D01*
G37*
G36*
X86439500Y77716000D02*
G01*
X85958500Y77716000D01*
X85958500Y78224000D01*
X86439500Y78224000D01*
X86439500Y77716000D01*
G37*
%TO.C,JP5*%
G36*
X39584500Y34036000D02*
G01*
X39103500Y34036000D01*
X39103500Y34544000D01*
X39584500Y34544000D01*
X39584500Y34036000D01*
G37*
G36*
X90884500Y34036000D02*
G01*
X90403500Y34036000D01*
X90403500Y34544000D01*
X90884500Y34544000D01*
X90884500Y34036000D01*
G37*
G36*
X39584500Y77716000D02*
G01*
X39103500Y77716000D01*
X39103500Y78224000D01*
X39584500Y78224000D01*
X39584500Y77716000D01*
G37*
G36*
X90884500Y77716000D02*
G01*
X90403500Y77716000D01*
X90403500Y78224000D01*
X90884500Y78224000D01*
X90884500Y77716000D01*
G37*
%TD*%
D11*
%TO.C,J2*%
X8255000Y36830000D03*
X8255000Y34290000D03*
X8255000Y31750000D03*
X8255000Y29210000D03*
X8255000Y26670000D03*
X8255000Y24130000D03*
%TD*%
%TO.C,J2*%
X8255000Y80510000D03*
X8255000Y77970000D03*
X8255000Y75430000D03*
X8255000Y72890000D03*
X8255000Y70350000D03*
X8255000Y67810000D03*
%TD*%
%TO.C,J2*%
X59555000Y36830000D03*
X59555000Y34290000D03*
X59555000Y31750000D03*
X59555000Y29210000D03*
X59555000Y26670000D03*
X59555000Y24130000D03*
%TD*%
%TO.C,J2*%
X59555000Y80510000D03*
X59555000Y77970000D03*
X59555000Y75430000D03*
X59555000Y72890000D03*
X59555000Y70350000D03*
X59555000Y67810000D03*
%TD*%
D12*
%TO.C,J1*%
X4879000Y15590000D03*
X4879000Y9810000D03*
D13*
X1229000Y17018000D03*
D14*
X5409000Y17018000D03*
X5409000Y8382000D03*
D13*
X1229000Y8382000D03*
%TD*%
D12*
%TO.C,J1*%
X4879000Y59270000D03*
X4879000Y53490000D03*
D13*
X1229000Y60698000D03*
D14*
X5409000Y60698000D03*
X5409000Y52062000D03*
D13*
X1229000Y52062000D03*
%TD*%
D12*
%TO.C,J1*%
X56179000Y15590000D03*
X56179000Y9810000D03*
D13*
X52529000Y17018000D03*
D14*
X56709000Y17018000D03*
X56709000Y8382000D03*
D13*
X52529000Y8382000D03*
%TD*%
D12*
%TO.C,J1*%
X56179000Y59270000D03*
X56179000Y53490000D03*
D13*
X52529000Y60698000D03*
D14*
X56709000Y60698000D03*
X56709000Y52062000D03*
D13*
X52529000Y52062000D03*
%TD*%
D15*
%TO.C,ST2*%
X40614000Y2540000D03*
%TD*%
%TO.C,ST2*%
X91914000Y2540000D03*
%TD*%
%TO.C,ST2*%
X40614000Y46220000D03*
%TD*%
%TO.C,ST2*%
X91914000Y46220000D03*
%TD*%
D16*
%TO.C,J5*%
X40857150Y20320000D03*
X40857150Y15240000D03*
%TD*%
%TO.C,J5*%
X92157150Y20320000D03*
X92157150Y15240000D03*
%TD*%
%TO.C,J5*%
X40857150Y64000000D03*
X40857150Y58920000D03*
%TD*%
%TO.C,J5*%
X92157150Y64000000D03*
X92157150Y58920000D03*
%TD*%
D15*
%TO.C,ST1*%
X40614000Y40640000D03*
%TD*%
%TO.C,ST1*%
X91914000Y40640000D03*
%TD*%
%TO.C,ST1*%
X40614000Y84320000D03*
%TD*%
%TO.C,ST1*%
X91914000Y84320000D03*
%TD*%
D11*
%TO.C,J6*%
X10160000Y41910000D03*
X12700000Y41910000D03*
X15240000Y41910000D03*
X17780000Y41910000D03*
X20320000Y41910000D03*
X22860000Y41910000D03*
X25400000Y41910000D03*
X27940000Y41910000D03*
X30480000Y41910000D03*
X33020000Y41910000D03*
X35560000Y41910000D03*
%TD*%
%TO.C,J6*%
X10160000Y85590000D03*
X12700000Y85590000D03*
X15240000Y85590000D03*
X17780000Y85590000D03*
X20320000Y85590000D03*
X22860000Y85590000D03*
X25400000Y85590000D03*
X27940000Y85590000D03*
X30480000Y85590000D03*
X33020000Y85590000D03*
X35560000Y85590000D03*
%TD*%
%TO.C,J6*%
X61460000Y41910000D03*
X64000000Y41910000D03*
X66540000Y41910000D03*
X69080000Y41910000D03*
X71620000Y41910000D03*
X74160000Y41910000D03*
X76700000Y41910000D03*
X79240000Y41910000D03*
X81780000Y41910000D03*
X84320000Y41910000D03*
X86860000Y41910000D03*
%TD*%
%TO.C,J6*%
X61460000Y85590000D03*
X64000000Y85590000D03*
X66540000Y85590000D03*
X69080000Y85590000D03*
X71620000Y85590000D03*
X74160000Y85590000D03*
X76700000Y85590000D03*
X79240000Y85590000D03*
X81780000Y85590000D03*
X84320000Y85590000D03*
X86860000Y85590000D03*
%TD*%
%TO.C,J4*%
X10160000Y1270000D03*
X12700000Y1270000D03*
X15240000Y1270000D03*
X17780000Y1270000D03*
X20320000Y1270000D03*
X22860000Y1270000D03*
X25400000Y1270000D03*
X27940000Y1270000D03*
X30480000Y1270000D03*
X33020000Y1270000D03*
%TD*%
%TO.C,J4*%
X61460000Y44950000D03*
X64000000Y44950000D03*
X66540000Y44950000D03*
X69080000Y44950000D03*
X71620000Y44950000D03*
X74160000Y44950000D03*
X76700000Y44950000D03*
X79240000Y44950000D03*
X81780000Y44950000D03*
X84320000Y44950000D03*
%TD*%
%TO.C,J4*%
X10160000Y44950000D03*
X12700000Y44950000D03*
X15240000Y44950000D03*
X17780000Y44950000D03*
X20320000Y44950000D03*
X22860000Y44950000D03*
X25400000Y44950000D03*
X27940000Y44950000D03*
X30480000Y44950000D03*
X33020000Y44950000D03*
%TD*%
%TO.C,J4*%
X61460000Y1270000D03*
X64000000Y1270000D03*
X66540000Y1270000D03*
X69080000Y1270000D03*
X71620000Y1270000D03*
X74160000Y1270000D03*
X76700000Y1270000D03*
X79240000Y1270000D03*
X81780000Y1270000D03*
X84320000Y1270000D03*
%TD*%
D15*
%TO.C,ST3*%
X2514000Y40640000D03*
%TD*%
%TO.C,ST3*%
X53814000Y40640000D03*
%TD*%
%TO.C,ST3*%
X53814000Y84320000D03*
%TD*%
%TO.C,ST3*%
X2514000Y84320000D03*
%TD*%
%TO.C,ST4*%
X2514000Y2540000D03*
%TD*%
%TO.C,ST4*%
X2514000Y46220000D03*
%TD*%
%TO.C,ST4*%
X53814000Y46220000D03*
%TD*%
%TO.C,ST4*%
X53814000Y2540000D03*
%TD*%
D17*
%TO.C,TP2*%
X24257000Y9144000D03*
%TD*%
%TO.C,TP2*%
X24257000Y52824000D03*
%TD*%
%TO.C,TP2*%
X75557000Y9144000D03*
%TD*%
%TO.C,TP2*%
X75557000Y52824000D03*
%TD*%
D18*
%TO.C,JP4*%
X5207000Y30251400D03*
X5207000Y29210000D03*
D19*
X5207000Y28168600D03*
%TD*%
D18*
%TO.C,JP4*%
X56507000Y73931400D03*
X56507000Y72890000D03*
D19*
X56507000Y71848600D03*
%TD*%
D18*
%TO.C,JP4*%
X5207000Y73931400D03*
X5207000Y72890000D03*
D19*
X5207000Y71848600D03*
%TD*%
D18*
%TO.C,JP4*%
X56507000Y30251400D03*
X56507000Y29210000D03*
D19*
X56507000Y28168600D03*
%TD*%
D20*
%TO.C,*%
X-5646000Y-2087500D03*
%TD*%
D21*
%TO.C,VREF.1*%
X28346400Y11303000D03*
X27305000Y11303000D03*
%TD*%
%TO.C,VREF.1*%
X79646400Y11303000D03*
X78605000Y11303000D03*
%TD*%
%TO.C,VREF.1*%
X28346400Y54983000D03*
X27305000Y54983000D03*
%TD*%
%TO.C,VREF.1*%
X79646400Y54983000D03*
X78605000Y54983000D03*
%TD*%
D20*
%TO.C,*%
X92454000Y88947500D03*
%TD*%
D18*
%TO.C,JP3*%
X37121500Y34810700D03*
X37121500Y33769300D03*
%TD*%
%TO.C,JP3*%
X37121500Y78490700D03*
X37121500Y77449300D03*
%TD*%
%TO.C,JP3*%
X88421500Y34810700D03*
X88421500Y33769300D03*
%TD*%
%TO.C,JP3*%
X88421500Y78490700D03*
X88421500Y77449300D03*
%TD*%
D22*
%TO.C,TP5*%
X10160000Y56380000D03*
%TD*%
%TO.C,TP5*%
X61460000Y12700000D03*
%TD*%
%TO.C,TP5*%
X61460000Y56380000D03*
%TD*%
%TO.C,TP5*%
X10160000Y12700000D03*
%TD*%
D18*
%TO.C,JP7*%
X1240250Y13220700D03*
X1240250Y12179300D03*
%TD*%
%TO.C,JP7*%
X52540250Y13220700D03*
X52540250Y12179300D03*
%TD*%
%TO.C,JP7*%
X1240250Y56900700D03*
X1240250Y55859300D03*
%TD*%
%TO.C,JP7*%
X52540250Y56900700D03*
X52540250Y55859300D03*
%TD*%
%TO.C,JP8*%
X41566500Y34810700D03*
X41566500Y33769300D03*
%TD*%
%TO.C,JP8*%
X92866500Y34810700D03*
X92866500Y33769300D03*
%TD*%
%TO.C,JP8*%
X41566500Y78490700D03*
X41566500Y77449300D03*
%TD*%
%TO.C,JP8*%
X92866500Y78490700D03*
X92866500Y77449300D03*
%TD*%
D23*
%TO.C,REF.1*%
X23723600Y11303000D03*
X24765000Y11303000D03*
%TD*%
%TO.C,REF.1*%
X75023600Y11303000D03*
X76065000Y11303000D03*
%TD*%
%TO.C,REF.1*%
X23723600Y54983000D03*
X24765000Y54983000D03*
%TD*%
%TO.C,REF.1*%
X75023600Y54983000D03*
X76065000Y54983000D03*
%TD*%
D22*
%TO.C,TP4*%
X15240000Y57650000D03*
%TD*%
%TO.C,TP4*%
X15240000Y13970000D03*
%TD*%
%TO.C,TP4*%
X66540000Y13970000D03*
%TD*%
%TO.C,TP4*%
X66540000Y57650000D03*
%TD*%
%TO.C,TP1*%
X4445000Y23495000D03*
%TD*%
%TO.C,TP1*%
X4445000Y67175000D03*
%TD*%
%TO.C,TP1*%
X55745000Y23495000D03*
%TD*%
%TO.C,TP1*%
X55745000Y67175000D03*
%TD*%
D24*
%TO.C,FID5*%
X42545000Y635000D03*
%TD*%
%TO.C,FID5*%
X42545000Y44315000D03*
%TD*%
%TO.C,FID5*%
X93845000Y635000D03*
%TD*%
%TO.C,FID5*%
X93845000Y44315000D03*
%TD*%
D22*
%TO.C,TP3*%
X15240000Y11430000D03*
%TD*%
%TO.C,TP3*%
X15240000Y55110000D03*
%TD*%
%TO.C,TP3*%
X66540000Y11430000D03*
%TD*%
%TO.C,TP3*%
X66540000Y55110000D03*
%TD*%
D24*
%TO.C,FID6*%
X635000Y42545000D03*
%TD*%
%TO.C,FID6*%
X635000Y86225000D03*
%TD*%
%TO.C,FID6*%
X51935000Y86225000D03*
%TD*%
%TO.C,FID6*%
X51935000Y42545000D03*
%TD*%
D20*
%TO.C,*%
X-5646000Y88947500D03*
%TD*%
D18*
%TO.C,JP2*%
X34899000Y34810700D03*
X34899000Y33769300D03*
%TD*%
%TO.C,JP2*%
X86199000Y34810700D03*
X86199000Y33769300D03*
%TD*%
%TO.C,JP2*%
X34899000Y78490700D03*
X34899000Y77449300D03*
%TD*%
%TO.C,JP2*%
X86199000Y78490700D03*
X86199000Y77449300D03*
%TD*%
%TO.C,JP5*%
X39344000Y34810700D03*
X39344000Y33769300D03*
%TD*%
%TO.C,JP5*%
X90644000Y34810700D03*
X90644000Y33769300D03*
%TD*%
%TO.C,JP5*%
X39344000Y78490700D03*
X39344000Y77449300D03*
%TD*%
%TO.C,JP5*%
X90644000Y78490700D03*
X90644000Y77449300D03*
%TD*%
M02*
