%TF.GenerationSoftware,KiCad,Pcbnew,9.0.1*%
%TF.CreationDate,2025-04-24T21:25:45+01:00*%
%TF.ProjectId,SparkFun_GNSS_mosaic-G5_P3_panelized,53706172-6b46-4756-9e5f-474e53535f6d,v01*%
%TF.SameCoordinates,Original*%
%TF.FileFunction,Paste,Top*%
%TF.FilePolarity,Positive*%
%FSLAX46Y46*%
G04 Gerber Fmt 4.6, Leading zero omitted, Abs format (unit mm)*
G04 Created by KiCad (PCBNEW 9.0.1) date 2025-04-24 21:25:45*
%MOMM*%
%LPD*%
G01*
G04 APERTURE LIST*
G04 Aperture macros list*
%AMRoundRect*
0 Rectangle with rounded corners*
0 $1 Rounding radius*
0 $2 $3 $4 $5 $6 $7 $8 $9 X,Y pos of 4 corners*
0 Add a 4 corners polygon primitive as box body*
4,1,4,$2,$3,$4,$5,$6,$7,$8,$9,$2,$3,0*
0 Add four circle primitives for the rounded corners*
1,1,$1+$1,$2,$3*
1,1,$1+$1,$4,$5*
1,1,$1+$1,$6,$7*
1,1,$1+$1,$8,$9*
0 Add four rect primitives between the rounded corners*
20,1,$1+$1,$2,$3,$4,$5,0*
20,1,$1+$1,$4,$5,$6,$7,0*
20,1,$1+$1,$6,$7,$8,$9,0*
20,1,$1+$1,$8,$9,$2,$3,0*%
G04 Aperture macros list end*
%ADD10R,0.300000X0.700000*%
%ADD11RoundRect,0.218750X0.256250X-0.218750X0.256250X0.218750X-0.256250X0.218750X-0.256250X-0.218750X0*%
%ADD12RoundRect,0.200000X-0.200000X-0.275000X0.200000X-0.275000X0.200000X0.275000X-0.200000X0.275000X0*%
%ADD13RoundRect,0.200000X0.275000X-0.200000X0.275000X0.200000X-0.275000X0.200000X-0.275000X-0.200000X0*%
%ADD14RoundRect,0.225000X-0.250000X0.225000X-0.250000X-0.225000X0.250000X-0.225000X0.250000X0.225000X0*%
%ADD15R,1.000000X0.300000*%
%ADD16R,1.000000X0.600000*%
%ADD17O,1.600000X1.000000*%
%ADD18O,2.100000X1.000000*%
%ADD19R,0.830000X0.630000*%
%ADD20R,1.700000X0.600000*%
%ADD21R,2.700000X1.000000*%
%ADD22RoundRect,0.200000X0.200000X0.275000X-0.200000X0.275000X-0.200000X-0.275000X0.200000X-0.275000X0*%
%ADD23RoundRect,0.140000X-0.170000X0.140000X-0.170000X-0.140000X0.170000X-0.140000X0.170000X0.140000X0*%
%ADD24R,0.900000X0.400000*%
%ADD25R,1.200000X0.550000*%
%ADD26R,1.050000X1.000000*%
%ADD27R,2.200000X0.850000*%
%ADD28RoundRect,0.225000X0.250000X-0.225000X0.250000X0.225000X-0.250000X0.225000X-0.250000X-0.225000X0*%
%ADD29RoundRect,0.225000X-0.225000X-0.250000X0.225000X-0.250000X0.225000X0.250000X-0.225000X0.250000X0*%
%ADD30R,0.800000X1.200000*%
%ADD31RoundRect,0.140000X0.170000X-0.140000X0.170000X0.140000X-0.170000X0.140000X-0.170000X-0.140000X0*%
%ADD32RoundRect,0.225000X0.225000X0.250000X-0.225000X0.250000X-0.225000X-0.250000X0.225000X-0.250000X0*%
%ADD33R,0.630000X0.830000*%
%ADD34RoundRect,0.050000X0.700000X0.350000X-0.700000X0.350000X-0.700000X-0.350000X0.700000X-0.350000X0*%
%ADD35RoundRect,0.050000X-0.350000X0.700000X-0.350000X-0.700000X0.350000X-0.700000X0.350000X0.700000X0*%
%ADD36RoundRect,0.050000X0.500000X0.500000X-0.500000X0.500000X-0.500000X-0.500000X0.500000X-0.500000X0*%
G04 APERTURE END LIST*
D10*
%TO.C,D13*%
X19319000Y37249000D03*
X18669000Y37249000D03*
X18019000Y37249000D03*
X18019000Y35649000D03*
X19319000Y35649000D03*
%TD*%
%TO.C,D13*%
X70619000Y80929000D03*
X69969000Y80929000D03*
X69319000Y80929000D03*
X69319000Y79329000D03*
X70619000Y79329000D03*
%TD*%
%TO.C,D13*%
X70619000Y37249000D03*
X69969000Y37249000D03*
X69319000Y37249000D03*
X69319000Y35649000D03*
X70619000Y35649000D03*
%TD*%
%TO.C,D13*%
X19319000Y80929000D03*
X18669000Y80929000D03*
X18019000Y80929000D03*
X18019000Y79329000D03*
X19319000Y79329000D03*
%TD*%
D11*
%TO.C,D4*%
X37756500Y30327500D03*
X37756500Y31902500D03*
%TD*%
%TO.C,D4*%
X37756500Y74007500D03*
X37756500Y75582500D03*
%TD*%
%TO.C,D4*%
X89056500Y30327500D03*
X89056500Y31902500D03*
%TD*%
%TO.C,D4*%
X89056500Y74007500D03*
X89056500Y75582500D03*
%TD*%
D12*
%TO.C,R8*%
X11113000Y36449000D03*
X12763000Y36449000D03*
%TD*%
%TO.C,R8*%
X62413000Y80129000D03*
X64063000Y80129000D03*
%TD*%
%TO.C,R8*%
X62413000Y36449000D03*
X64063000Y36449000D03*
%TD*%
%TO.C,R8*%
X11113000Y80129000D03*
X12763000Y80129000D03*
%TD*%
D13*
%TO.C,R3*%
X39661500Y33465000D03*
X39661500Y35115000D03*
%TD*%
%TO.C,R3*%
X90961500Y33465000D03*
X90961500Y35115000D03*
%TD*%
%TO.C,R3*%
X90961500Y77145000D03*
X90961500Y78795000D03*
%TD*%
%TO.C,R3*%
X39661500Y77145000D03*
X39661500Y78795000D03*
%TD*%
D14*
%TO.C,C5*%
X21463000Y8662000D03*
X21463000Y7112000D03*
%TD*%
%TO.C,C5*%
X21463000Y52342000D03*
X21463000Y50792000D03*
%TD*%
%TO.C,C5*%
X72763000Y52342000D03*
X72763000Y50792000D03*
%TD*%
%TO.C,C5*%
X72763000Y8662000D03*
X72763000Y7112000D03*
%TD*%
D15*
%TO.C,J1*%
X5984000Y13950000D03*
X5984000Y12950000D03*
X5984000Y12450000D03*
X5984000Y11450000D03*
X5984000Y10950000D03*
X5984000Y11950000D03*
X5984000Y13450000D03*
X5984000Y14450000D03*
D16*
X5984000Y15925000D03*
X5984000Y9475000D03*
D17*
X1229000Y17018000D03*
D18*
X5409000Y17018000D03*
X5409000Y8382000D03*
D17*
X1229000Y8382000D03*
D16*
X5984000Y15150000D03*
X5984000Y10250000D03*
%TD*%
D15*
%TO.C,J1*%
X57284000Y57630000D03*
X57284000Y56630000D03*
X57284000Y56130000D03*
X57284000Y55130000D03*
X57284000Y54630000D03*
X57284000Y55630000D03*
X57284000Y57130000D03*
X57284000Y58130000D03*
D16*
X57284000Y59605000D03*
X57284000Y53155000D03*
D17*
X52529000Y60698000D03*
D18*
X56709000Y60698000D03*
X56709000Y52062000D03*
D17*
X52529000Y52062000D03*
D16*
X57284000Y58830000D03*
X57284000Y53930000D03*
%TD*%
D15*
%TO.C,J1*%
X57284000Y13950000D03*
X57284000Y12950000D03*
X57284000Y12450000D03*
X57284000Y11450000D03*
X57284000Y10950000D03*
X57284000Y11950000D03*
X57284000Y13450000D03*
X57284000Y14450000D03*
D16*
X57284000Y15925000D03*
X57284000Y9475000D03*
D17*
X52529000Y17018000D03*
D18*
X56709000Y17018000D03*
X56709000Y8382000D03*
D17*
X52529000Y8382000D03*
D16*
X57284000Y15150000D03*
X57284000Y10250000D03*
%TD*%
D15*
%TO.C,J1*%
X5984000Y57630000D03*
X5984000Y56630000D03*
X5984000Y56130000D03*
X5984000Y55130000D03*
X5984000Y54630000D03*
X5984000Y55630000D03*
X5984000Y57130000D03*
X5984000Y58130000D03*
D16*
X5984000Y59605000D03*
X5984000Y53155000D03*
D17*
X1229000Y60698000D03*
D18*
X5409000Y60698000D03*
X5409000Y52062000D03*
D17*
X1229000Y52062000D03*
D16*
X5984000Y58830000D03*
X5984000Y53930000D03*
%TD*%
D19*
%TO.C,D7*%
X15240000Y35299000D03*
X15240000Y37599000D03*
%TD*%
%TO.C,D7*%
X66540000Y78979000D03*
X66540000Y81279000D03*
%TD*%
%TO.C,D7*%
X15240000Y78979000D03*
X15240000Y81279000D03*
%TD*%
%TO.C,D7*%
X66540000Y35299000D03*
X66540000Y37599000D03*
%TD*%
D20*
%TO.C,J8*%
X4899000Y32355000D03*
X4899000Y31105000D03*
X4899000Y29855000D03*
X4899000Y28605000D03*
D21*
X1699000Y34230000D03*
X1699000Y26730000D03*
%TD*%
D20*
%TO.C,J8*%
X56199000Y32355000D03*
X56199000Y31105000D03*
X56199000Y29855000D03*
X56199000Y28605000D03*
D21*
X52999000Y34230000D03*
X52999000Y26730000D03*
%TD*%
D20*
%TO.C,J8*%
X4899000Y76035000D03*
X4899000Y74785000D03*
X4899000Y73535000D03*
X4899000Y72285000D03*
D21*
X1699000Y77910000D03*
X1699000Y70410000D03*
%TD*%
D20*
%TO.C,J8*%
X56199000Y76035000D03*
X56199000Y74785000D03*
X56199000Y73535000D03*
X56199000Y72285000D03*
D21*
X52999000Y77910000D03*
X52999000Y70410000D03*
%TD*%
D22*
%TO.C,R2*%
X10350000Y15240000D03*
X8700000Y15240000D03*
%TD*%
%TO.C,R2*%
X10350000Y58920000D03*
X8700000Y58920000D03*
%TD*%
%TO.C,R2*%
X61650000Y15240000D03*
X60000000Y15240000D03*
%TD*%
%TO.C,R2*%
X61650000Y58920000D03*
X60000000Y58920000D03*
%TD*%
D13*
%TO.C,R5*%
X37756500Y33465000D03*
X37756500Y35115000D03*
%TD*%
%TO.C,R5*%
X89056500Y33465000D03*
X89056500Y35115000D03*
%TD*%
%TO.C,R5*%
X37756500Y77145000D03*
X37756500Y78795000D03*
%TD*%
%TO.C,R5*%
X89056500Y77145000D03*
X89056500Y78795000D03*
%TD*%
D14*
%TO.C,C3*%
X22987000Y8662000D03*
X22987000Y7112000D03*
%TD*%
%TO.C,C3*%
X74287000Y8662000D03*
X74287000Y7112000D03*
%TD*%
%TO.C,C3*%
X22987000Y52342000D03*
X22987000Y50792000D03*
%TD*%
%TO.C,C3*%
X74287000Y52342000D03*
X74287000Y50792000D03*
%TD*%
D11*
%TO.C,D1*%
X35851500Y30327500D03*
X35851500Y31902500D03*
%TD*%
%TO.C,D1*%
X35851500Y74007500D03*
X35851500Y75582500D03*
%TD*%
%TO.C,D1*%
X87151500Y30327500D03*
X87151500Y31902500D03*
%TD*%
%TO.C,D1*%
X87151500Y74007500D03*
X87151500Y75582500D03*
%TD*%
D13*
%TO.C,R4*%
X35851500Y33465000D03*
X35851500Y35115000D03*
%TD*%
%TO.C,R4*%
X87151500Y33465000D03*
X87151500Y35115000D03*
%TD*%
%TO.C,R4*%
X87151500Y77145000D03*
X87151500Y78795000D03*
%TD*%
%TO.C,R4*%
X35851500Y77145000D03*
X35851500Y78795000D03*
%TD*%
D11*
%TO.C,D2*%
X39661500Y30327500D03*
X39661500Y31902500D03*
%TD*%
%TO.C,D2*%
X90961500Y74007500D03*
X90961500Y75582500D03*
%TD*%
%TO.C,D2*%
X39661500Y74007500D03*
X39661500Y75582500D03*
%TD*%
%TO.C,D2*%
X90961500Y30327500D03*
X90961500Y31902500D03*
%TD*%
D23*
%TO.C,D3*%
X37999650Y18768000D03*
X37999650Y17808000D03*
%TD*%
%TO.C,D3*%
X37999650Y62448000D03*
X37999650Y61488000D03*
%TD*%
%TO.C,D3*%
X89299650Y18768000D03*
X89299650Y17808000D03*
%TD*%
%TO.C,D3*%
X89299650Y62448000D03*
X89299650Y61488000D03*
%TD*%
D24*
%TO.C,TR1*%
X13120000Y13100000D03*
X14820000Y13100000D03*
X13120000Y12300000D03*
X14820000Y12300000D03*
%TD*%
%TO.C,TR1*%
X64420000Y56780000D03*
X66120000Y56780000D03*
X64420000Y55980000D03*
X66120000Y55980000D03*
%TD*%
%TO.C,TR1*%
X64420000Y13100000D03*
X66120000Y13100000D03*
X64420000Y12300000D03*
X66120000Y12300000D03*
%TD*%
%TO.C,TR1*%
X13120000Y56780000D03*
X14820000Y56780000D03*
X13120000Y55980000D03*
X14820000Y55980000D03*
%TD*%
D22*
%TO.C,R1*%
X10287000Y10160000D03*
X8637000Y10160000D03*
%TD*%
%TO.C,R1*%
X61587000Y10160000D03*
X59937000Y10160000D03*
%TD*%
%TO.C,R1*%
X10287000Y53840000D03*
X8637000Y53840000D03*
%TD*%
%TO.C,R1*%
X61587000Y53840000D03*
X59937000Y53840000D03*
%TD*%
D25*
%TO.C,U2*%
X11399900Y21270000D03*
X11399900Y20320000D03*
X11399900Y19370000D03*
X14000100Y19370000D03*
X14000100Y21270000D03*
%TD*%
%TO.C,U2*%
X62699900Y64950000D03*
X62699900Y64000000D03*
X62699900Y63050000D03*
X65300100Y63050000D03*
X65300100Y64950000D03*
%TD*%
%TO.C,U2*%
X62699900Y21270000D03*
X62699900Y20320000D03*
X62699900Y19370000D03*
X65300100Y19370000D03*
X65300100Y21270000D03*
%TD*%
%TO.C,U2*%
X11399900Y64950000D03*
X11399900Y64000000D03*
X11399900Y63050000D03*
X14000100Y63050000D03*
X14000100Y64950000D03*
%TD*%
D26*
%TO.C,J10*%
X39395650Y11430000D03*
D27*
X40920650Y10055000D03*
X40920650Y12805000D03*
%TD*%
D26*
%TO.C,J10*%
X90695650Y11430000D03*
D27*
X92220650Y10055000D03*
X92220650Y12805000D03*
%TD*%
D26*
%TO.C,J10*%
X39395650Y55110000D03*
D27*
X40920650Y53735000D03*
X40920650Y56485000D03*
%TD*%
D26*
%TO.C,J10*%
X90695650Y55110000D03*
D27*
X92220650Y53735000D03*
X92220650Y56485000D03*
%TD*%
D14*
%TO.C,C8*%
X19939000Y8662000D03*
X19939000Y7112000D03*
%TD*%
%TO.C,C8*%
X19939000Y52342000D03*
X19939000Y50792000D03*
%TD*%
%TO.C,C8*%
X71239000Y52342000D03*
X71239000Y50792000D03*
%TD*%
%TO.C,C8*%
X71239000Y8662000D03*
X71239000Y7112000D03*
%TD*%
D28*
%TO.C,L1*%
X32893000Y7099000D03*
X32893000Y8649000D03*
%TD*%
%TO.C,L1*%
X32893000Y50779000D03*
X32893000Y52329000D03*
%TD*%
%TO.C,L1*%
X84193000Y7099000D03*
X84193000Y8649000D03*
%TD*%
%TO.C,L1*%
X84193000Y50779000D03*
X84193000Y52329000D03*
%TD*%
D29*
%TO.C,C7*%
X8737000Y16891000D03*
X10287000Y16891000D03*
%TD*%
%TO.C,C7*%
X8737000Y60571000D03*
X10287000Y60571000D03*
%TD*%
%TO.C,C7*%
X60037000Y16891000D03*
X61587000Y16891000D03*
%TD*%
%TO.C,C7*%
X60037000Y60571000D03*
X61587000Y60571000D03*
%TD*%
D10*
%TO.C,D12*%
X30749000Y7658000D03*
X30099000Y7658000D03*
X29449000Y7658000D03*
X29449000Y6058000D03*
X30749000Y6058000D03*
%TD*%
%TO.C,D12*%
X82049000Y7658000D03*
X81399000Y7658000D03*
X80749000Y7658000D03*
X80749000Y6058000D03*
X82049000Y6058000D03*
%TD*%
%TO.C,D12*%
X82049000Y51338000D03*
X81399000Y51338000D03*
X80749000Y51338000D03*
X80749000Y49738000D03*
X82049000Y49738000D03*
%TD*%
%TO.C,D12*%
X30749000Y51338000D03*
X30099000Y51338000D03*
X29449000Y51338000D03*
X29449000Y49738000D03*
X30749000Y49738000D03*
%TD*%
D13*
%TO.C,R11*%
X41566500Y33465000D03*
X41566500Y35115000D03*
%TD*%
%TO.C,R11*%
X41566500Y77145000D03*
X41566500Y78795000D03*
%TD*%
%TO.C,R11*%
X92866500Y33465000D03*
X92866500Y35115000D03*
%TD*%
%TO.C,R11*%
X92866500Y77145000D03*
X92866500Y78795000D03*
%TD*%
D10*
%TO.C,D10*%
X31765000Y37249000D03*
X31115000Y37249000D03*
X30465000Y37249000D03*
X30465000Y35649000D03*
X31765000Y35649000D03*
%TD*%
%TO.C,D10*%
X31765000Y80929000D03*
X31115000Y80929000D03*
X30465000Y80929000D03*
X30465000Y79329000D03*
X31765000Y79329000D03*
%TD*%
%TO.C,D10*%
X83065000Y80929000D03*
X82415000Y80929000D03*
X81765000Y80929000D03*
X81765000Y79329000D03*
X83065000Y79329000D03*
%TD*%
%TO.C,D10*%
X83065000Y37249000D03*
X82415000Y37249000D03*
X81765000Y37249000D03*
X81765000Y35649000D03*
X83065000Y35649000D03*
%TD*%
D30*
%TO.C,F1*%
X6996000Y21209000D03*
X5196000Y21209000D03*
%TD*%
%TO.C,F1*%
X6996000Y64889000D03*
X5196000Y64889000D03*
%TD*%
%TO.C,F1*%
X58296000Y64889000D03*
X56496000Y64889000D03*
%TD*%
%TO.C,F1*%
X58296000Y21209000D03*
X56496000Y21209000D03*
%TD*%
D31*
%TO.C,D14*%
X38063150Y10569000D03*
X38063150Y11529000D03*
%TD*%
%TO.C,D14*%
X38063150Y54249000D03*
X38063150Y55209000D03*
%TD*%
%TO.C,D14*%
X89363150Y54249000D03*
X89363150Y55209000D03*
%TD*%
%TO.C,D14*%
X89363150Y10569000D03*
X89363150Y11529000D03*
%TD*%
D25*
%TO.C,U1*%
X10825100Y11750000D03*
X10825100Y12700000D03*
X10825100Y13650000D03*
X8224900Y13650000D03*
X8225000Y12700000D03*
X8224900Y11750000D03*
%TD*%
%TO.C,U1*%
X62125100Y55430000D03*
X62125100Y56380000D03*
X62125100Y57330000D03*
X59524900Y57330000D03*
X59525000Y56380000D03*
X59524900Y55430000D03*
%TD*%
%TO.C,U1*%
X10825100Y55430000D03*
X10825100Y56380000D03*
X10825100Y57330000D03*
X8224900Y57330000D03*
X8225000Y56380000D03*
X8224900Y55430000D03*
%TD*%
%TO.C,U1*%
X62125100Y11750000D03*
X62125100Y12700000D03*
X62125100Y13650000D03*
X59524900Y13650000D03*
X59525000Y12700000D03*
X59524900Y11750000D03*
%TD*%
D11*
%TO.C,D9*%
X41566500Y30327500D03*
X41566500Y31902500D03*
%TD*%
%TO.C,D9*%
X92866500Y30327500D03*
X92866500Y31902500D03*
%TD*%
%TO.C,D9*%
X41566500Y74007500D03*
X41566500Y75582500D03*
%TD*%
%TO.C,D9*%
X92866500Y74007500D03*
X92866500Y75582500D03*
%TD*%
D14*
%TO.C,C1*%
X8890000Y21095000D03*
X8890000Y19545000D03*
%TD*%
%TO.C,C1*%
X60190000Y64775000D03*
X60190000Y63225000D03*
%TD*%
%TO.C,C1*%
X8890000Y64775000D03*
X8890000Y63225000D03*
%TD*%
%TO.C,C1*%
X60190000Y21095000D03*
X60190000Y19545000D03*
%TD*%
D10*
%TO.C,D8*%
X17160000Y7658000D03*
X16510000Y7658000D03*
X15860000Y7658000D03*
X15860000Y6058000D03*
X17160000Y6058000D03*
%TD*%
%TO.C,D8*%
X68460000Y51338000D03*
X67810000Y51338000D03*
X67160000Y51338000D03*
X67160000Y49738000D03*
X68460000Y49738000D03*
%TD*%
%TO.C,D8*%
X17160000Y51338000D03*
X16510000Y51338000D03*
X15860000Y51338000D03*
X15860000Y49738000D03*
X17160000Y49738000D03*
%TD*%
%TO.C,D8*%
X68460000Y7658000D03*
X67810000Y7658000D03*
X67160000Y7658000D03*
X67160000Y6058000D03*
X68460000Y6058000D03*
%TD*%
D29*
%TO.C,C13*%
X8737000Y8509000D03*
X10287000Y8509000D03*
%TD*%
%TO.C,C13*%
X8737000Y52189000D03*
X10287000Y52189000D03*
%TD*%
%TO.C,C13*%
X60037000Y8509000D03*
X61587000Y8509000D03*
%TD*%
%TO.C,C13*%
X60037000Y52189000D03*
X61587000Y52189000D03*
%TD*%
D32*
%TO.C,C14*%
X13488000Y22860000D03*
X11938000Y22860000D03*
%TD*%
%TO.C,C14*%
X64788000Y22860000D03*
X63238000Y22860000D03*
%TD*%
%TO.C,C14*%
X64788000Y66540000D03*
X63238000Y66540000D03*
%TD*%
%TO.C,C14*%
X13488000Y66540000D03*
X11938000Y66540000D03*
%TD*%
D12*
%TO.C,R9*%
X11875000Y17780000D03*
X13525000Y17780000D03*
%TD*%
%TO.C,R9*%
X63175000Y17780000D03*
X64825000Y17780000D03*
%TD*%
%TO.C,R9*%
X63175000Y61460000D03*
X64825000Y61460000D03*
%TD*%
%TO.C,R9*%
X11875000Y61460000D03*
X13525000Y61460000D03*
%TD*%
D33*
%TO.C,D6*%
X4946000Y19304000D03*
X7246000Y19304000D03*
%TD*%
%TO.C,D6*%
X4946000Y62984000D03*
X7246000Y62984000D03*
%TD*%
%TO.C,D6*%
X56246000Y19304000D03*
X58546000Y19304000D03*
%TD*%
%TO.C,D6*%
X56246000Y62984000D03*
X58546000Y62984000D03*
%TD*%
D34*
%TO.C,U3*%
X32550000Y13190002D03*
X32550000Y14390002D03*
X32550000Y15590002D03*
X32550000Y16789999D03*
X32550000Y17990000D03*
X32550000Y19190000D03*
X32550000Y20390000D03*
X32550000Y21590000D03*
X32550000Y22790000D03*
X32550000Y23990000D03*
X32550000Y25190000D03*
X32550000Y26390001D03*
X32550000Y27590001D03*
X32550000Y28790001D03*
X32550000Y29989998D03*
D35*
X31999999Y31940000D03*
X30799999Y31940000D03*
X29599999Y31940000D03*
X28399999Y31940000D03*
X27199999Y31940000D03*
X25999999Y31940000D03*
X24800001Y31940000D03*
X23600001Y31940000D03*
X22400001Y31940000D03*
X21200001Y31940000D03*
X20000001Y31940000D03*
X18800001Y31940000D03*
D34*
X18250000Y29989998D03*
X18250000Y28789998D03*
X18250000Y27589998D03*
X18250000Y26389998D03*
X18250000Y25190000D03*
X18250000Y23990000D03*
X18250000Y22790000D03*
X18250000Y21590000D03*
X18250000Y20390000D03*
X18250000Y19190000D03*
X18250000Y17990000D03*
X18250000Y16789999D03*
X18250000Y15589999D03*
X18250000Y14389999D03*
X18250000Y13189999D03*
D35*
X18800001Y11240000D03*
X20000001Y11240000D03*
X21200001Y11240000D03*
X22400001Y11240000D03*
X23600001Y11240000D03*
X24800001Y11240000D03*
X25999999Y11240000D03*
X27199999Y11240000D03*
X28399999Y11240000D03*
X29599999Y11240000D03*
X30799999Y11240000D03*
X31999999Y11240000D03*
D36*
X26150000Y14840000D03*
X24650000Y14840000D03*
X29150000Y16340000D03*
X27650000Y16340000D03*
X26150000Y16340000D03*
X24650000Y16340000D03*
X23150000Y16340000D03*
X21650000Y16340000D03*
X29150000Y17840000D03*
X27650000Y17840000D03*
X23150000Y17840000D03*
X21650000Y17840000D03*
X29150000Y19340000D03*
X27650000Y19340000D03*
X23150000Y19340000D03*
X21650000Y19340000D03*
X29150000Y20840000D03*
X27650000Y20840000D03*
X23150000Y20840000D03*
X21650000Y20840000D03*
X29150000Y22340000D03*
X27650000Y22340000D03*
X23150000Y22340000D03*
X21650000Y22340000D03*
X29150000Y23840000D03*
X27650000Y23840000D03*
X23150000Y23840000D03*
X21650000Y23840000D03*
X29150000Y25340000D03*
X27650000Y25340000D03*
X23150000Y25340000D03*
X21650000Y25340000D03*
X29150000Y26840000D03*
X27650000Y26840000D03*
X26150000Y26840000D03*
X24650000Y26840000D03*
X23150000Y26840000D03*
X21650000Y26840000D03*
X26150000Y28340000D03*
X24650000Y28340000D03*
%TD*%
D34*
%TO.C,U3*%
X83850000Y13190002D03*
X83850000Y14390002D03*
X83850000Y15590002D03*
X83850000Y16789999D03*
X83850000Y17990000D03*
X83850000Y19190000D03*
X83850000Y20390000D03*
X83850000Y21590000D03*
X83850000Y22790000D03*
X83850000Y23990000D03*
X83850000Y25190000D03*
X83850000Y26390001D03*
X83850000Y27590001D03*
X83850000Y28790001D03*
X83850000Y29989998D03*
D35*
X83299999Y31940000D03*
X82099999Y31940000D03*
X80899999Y31940000D03*
X79699999Y31940000D03*
X78499999Y31940000D03*
X77299999Y31940000D03*
X76100001Y31940000D03*
X74900001Y31940000D03*
X73700001Y31940000D03*
X72500001Y31940000D03*
X71300001Y31940000D03*
X70100001Y31940000D03*
D34*
X69550000Y29989998D03*
X69550000Y28789998D03*
X69550000Y27589998D03*
X69550000Y26389998D03*
X69550000Y25190000D03*
X69550000Y23990000D03*
X69550000Y22790000D03*
X69550000Y21590000D03*
X69550000Y20390000D03*
X69550000Y19190000D03*
X69550000Y17990000D03*
X69550000Y16789999D03*
X69550000Y15589999D03*
X69550000Y14389999D03*
X69550000Y13189999D03*
D35*
X70100001Y11240000D03*
X71300001Y11240000D03*
X72500001Y11240000D03*
X73700001Y11240000D03*
X74900001Y11240000D03*
X76100001Y11240000D03*
X77299999Y11240000D03*
X78499999Y11240000D03*
X79699999Y11240000D03*
X80899999Y11240000D03*
X82099999Y11240000D03*
X83299999Y11240000D03*
D36*
X77450000Y14840000D03*
X75950000Y14840000D03*
X80450000Y16340000D03*
X78950000Y16340000D03*
X77450000Y16340000D03*
X75950000Y16340000D03*
X74450000Y16340000D03*
X72950000Y16340000D03*
X80450000Y17840000D03*
X78950000Y17840000D03*
X74450000Y17840000D03*
X72950000Y17840000D03*
X80450000Y19340000D03*
X78950000Y19340000D03*
X74450000Y19340000D03*
X72950000Y19340000D03*
X80450000Y20840000D03*
X78950000Y20840000D03*
X74450000Y20840000D03*
X72950000Y20840000D03*
X80450000Y22340000D03*
X78950000Y22340000D03*
X74450000Y22340000D03*
X72950000Y22340000D03*
X80450000Y23840000D03*
X78950000Y23840000D03*
X74450000Y23840000D03*
X72950000Y23840000D03*
X80450000Y25340000D03*
X78950000Y25340000D03*
X74450000Y25340000D03*
X72950000Y25340000D03*
X80450000Y26840000D03*
X78950000Y26840000D03*
X77450000Y26840000D03*
X75950000Y26840000D03*
X74450000Y26840000D03*
X72950000Y26840000D03*
X77450000Y28340000D03*
X75950000Y28340000D03*
%TD*%
D34*
%TO.C,U3*%
X32550000Y56870002D03*
X32550000Y58070002D03*
X32550000Y59270002D03*
X32550000Y60469999D03*
X32550000Y61670000D03*
X32550000Y62870000D03*
X32550000Y64070000D03*
X32550000Y65270000D03*
X32550000Y66470000D03*
X32550000Y67670000D03*
X32550000Y68870000D03*
X32550000Y70070001D03*
X32550000Y71270001D03*
X32550000Y72470001D03*
X32550000Y73669998D03*
D35*
X31999999Y75620000D03*
X30799999Y75620000D03*
X29599999Y75620000D03*
X28399999Y75620000D03*
X27199999Y75620000D03*
X25999999Y75620000D03*
X24800001Y75620000D03*
X23600001Y75620000D03*
X22400001Y75620000D03*
X21200001Y75620000D03*
X20000001Y75620000D03*
X18800001Y75620000D03*
D34*
X18250000Y73669998D03*
X18250000Y72469998D03*
X18250000Y71269998D03*
X18250000Y70069998D03*
X18250000Y68870000D03*
X18250000Y67670000D03*
X18250000Y66470000D03*
X18250000Y65270000D03*
X18250000Y64070000D03*
X18250000Y62870000D03*
X18250000Y61670000D03*
X18250000Y60469999D03*
X18250000Y59269999D03*
X18250000Y58069999D03*
X18250000Y56869999D03*
D35*
X18800001Y54920000D03*
X20000001Y54920000D03*
X21200001Y54920000D03*
X22400001Y54920000D03*
X23600001Y54920000D03*
X24800001Y54920000D03*
X25999999Y54920000D03*
X27199999Y54920000D03*
X28399999Y54920000D03*
X29599999Y54920000D03*
X30799999Y54920000D03*
X31999999Y54920000D03*
D36*
X26150000Y58520000D03*
X24650000Y58520000D03*
X29150000Y60020000D03*
X27650000Y60020000D03*
X26150000Y60020000D03*
X24650000Y60020000D03*
X23150000Y60020000D03*
X21650000Y60020000D03*
X29150000Y61520000D03*
X27650000Y61520000D03*
X23150000Y61520000D03*
X21650000Y61520000D03*
X29150000Y63020000D03*
X27650000Y63020000D03*
X23150000Y63020000D03*
X21650000Y63020000D03*
X29150000Y64520000D03*
X27650000Y64520000D03*
X23150000Y64520000D03*
X21650000Y64520000D03*
X29150000Y66020000D03*
X27650000Y66020000D03*
X23150000Y66020000D03*
X21650000Y66020000D03*
X29150000Y67520000D03*
X27650000Y67520000D03*
X23150000Y67520000D03*
X21650000Y67520000D03*
X29150000Y69020000D03*
X27650000Y69020000D03*
X23150000Y69020000D03*
X21650000Y69020000D03*
X29150000Y70520000D03*
X27650000Y70520000D03*
X26150000Y70520000D03*
X24650000Y70520000D03*
X23150000Y70520000D03*
X21650000Y70520000D03*
X26150000Y72020000D03*
X24650000Y72020000D03*
%TD*%
D34*
%TO.C,U3*%
X83850000Y56870002D03*
X83850000Y58070002D03*
X83850000Y59270002D03*
X83850000Y60469999D03*
X83850000Y61670000D03*
X83850000Y62870000D03*
X83850000Y64070000D03*
X83850000Y65270000D03*
X83850000Y66470000D03*
X83850000Y67670000D03*
X83850000Y68870000D03*
X83850000Y70070001D03*
X83850000Y71270001D03*
X83850000Y72470001D03*
X83850000Y73669998D03*
D35*
X83299999Y75620000D03*
X82099999Y75620000D03*
X80899999Y75620000D03*
X79699999Y75620000D03*
X78499999Y75620000D03*
X77299999Y75620000D03*
X76100001Y75620000D03*
X74900001Y75620000D03*
X73700001Y75620000D03*
X72500001Y75620000D03*
X71300001Y75620000D03*
X70100001Y75620000D03*
D34*
X69550000Y73669998D03*
X69550000Y72469998D03*
X69550000Y71269998D03*
X69550000Y70069998D03*
X69550000Y68870000D03*
X69550000Y67670000D03*
X69550000Y66470000D03*
X69550000Y65270000D03*
X69550000Y64070000D03*
X69550000Y62870000D03*
X69550000Y61670000D03*
X69550000Y60469999D03*
X69550000Y59269999D03*
X69550000Y58069999D03*
X69550000Y56869999D03*
D35*
X70100001Y54920000D03*
X71300001Y54920000D03*
X72500001Y54920000D03*
X73700001Y54920000D03*
X74900001Y54920000D03*
X76100001Y54920000D03*
X77299999Y54920000D03*
X78499999Y54920000D03*
X79699999Y54920000D03*
X80899999Y54920000D03*
X82099999Y54920000D03*
X83299999Y54920000D03*
D36*
X77450000Y58520000D03*
X75950000Y58520000D03*
X80450000Y60020000D03*
X78950000Y60020000D03*
X77450000Y60020000D03*
X75950000Y60020000D03*
X74450000Y60020000D03*
X72950000Y60020000D03*
X80450000Y61520000D03*
X78950000Y61520000D03*
X74450000Y61520000D03*
X72950000Y61520000D03*
X80450000Y63020000D03*
X78950000Y63020000D03*
X74450000Y63020000D03*
X72950000Y63020000D03*
X80450000Y64520000D03*
X78950000Y64520000D03*
X74450000Y64520000D03*
X72950000Y64520000D03*
X80450000Y66020000D03*
X78950000Y66020000D03*
X74450000Y66020000D03*
X72950000Y66020000D03*
X80450000Y67520000D03*
X78950000Y67520000D03*
X74450000Y67520000D03*
X72950000Y67520000D03*
X80450000Y69020000D03*
X78950000Y69020000D03*
X74450000Y69020000D03*
X72950000Y69020000D03*
X80450000Y70520000D03*
X78950000Y70520000D03*
X77450000Y70520000D03*
X75950000Y70520000D03*
X74450000Y70520000D03*
X72950000Y70520000D03*
X77450000Y72020000D03*
X75950000Y72020000D03*
%TD*%
M02*
