%TF.GenerationSoftware,KiCad,Pcbnew,9.0.1*%
%TF.CreationDate,2025-04-25T00:06:44+01:00*%
%TF.ProjectId,SparkFun_GNSS_mosaic-G5_P3_panelized,53706172-6b46-4756-9e5f-474e53535f6d,v01*%
%TF.SameCoordinates,Original*%
%TF.FileFunction,Soldermask,Bot*%
%TF.FilePolarity,Negative*%
%FSLAX46Y46*%
G04 Gerber Fmt 4.6, Leading zero omitted, Abs format (unit mm)*
G04 Created by KiCad (PCBNEW 9.0.1) date 2025-04-25 00:06:44*
%MOMM*%
%LPD*%
G01*
G04 APERTURE LIST*
%TA.AperFunction,Profile*%
%ADD10C,0.100000*%
%TD*%
%ADD11C,0.500000*%
%ADD12C,0.250000*%
G04 APERTURE END LIST*
D10*
X-14496000Y-6850000D02*
X-14496000Y93710000D01*
X101304000Y-6850000D02*
X-14496000Y-6850000D01*
X-26000Y86860000D02*
X43154000Y86860000D01*
X43154000Y43680000D01*
X-26000Y43680000D01*
X-26000Y86860000D01*
X94954000Y-500000D02*
X-8146000Y-500000D01*
X-26000Y43180000D02*
X43154000Y43180000D01*
X43154000Y0D01*
X-26000Y0D01*
X-26000Y43180000D01*
X94954000Y87360000D02*
X94954000Y-500000D01*
X101304000Y93710000D02*
X101304000Y-6850000D01*
X51274000Y86860000D02*
X94454000Y86860000D01*
X94454000Y43680000D01*
X51274000Y43680000D01*
X51274000Y86860000D01*
X-8146000Y87360000D02*
X94954000Y87360000D01*
X-14496000Y93710000D02*
X101304000Y93710000D01*
X-8146000Y-500000D02*
X-8146000Y87360000D01*
X51274000Y43180000D02*
X94454000Y43180000D01*
X94454000Y0D01*
X51274000Y0D01*
X51274000Y43180000D01*
D11*
X94704000Y93960000D02*
X94704000Y-7100000D01*
X-14746000Y43430000D02*
X101554000Y43430000D01*
X-14746000Y-250000D02*
X101554000Y-250000D01*
X-14746000Y87110000D02*
X101554000Y87110000D01*
D12*
X48126238Y36668095D02*
X47173857Y36001428D01*
X48126238Y35525238D02*
X46126238Y35525238D01*
X46126238Y35525238D02*
X46126238Y36287143D01*
X46126238Y36287143D02*
X46221476Y36477619D01*
X46221476Y36477619D02*
X46316714Y36572857D01*
X46316714Y36572857D02*
X46507190Y36668095D01*
X46507190Y36668095D02*
X46792904Y36668095D01*
X46792904Y36668095D02*
X46983380Y36572857D01*
X46983380Y36572857D02*
X47078619Y36477619D01*
X47078619Y36477619D02*
X47173857Y36287143D01*
X47173857Y36287143D02*
X47173857Y35525238D01*
X46126238Y37906190D02*
X46126238Y38287143D01*
X46126238Y38287143D02*
X46221476Y38477619D01*
X46221476Y38477619D02*
X46411952Y38668095D01*
X46411952Y38668095D02*
X46792904Y38763333D01*
X46792904Y38763333D02*
X47459571Y38763333D01*
X47459571Y38763333D02*
X47840523Y38668095D01*
X47840523Y38668095D02*
X48031000Y38477619D01*
X48031000Y38477619D02*
X48126238Y38287143D01*
X48126238Y38287143D02*
X48126238Y37906190D01*
X48126238Y37906190D02*
X48031000Y37715714D01*
X48031000Y37715714D02*
X47840523Y37525238D01*
X47840523Y37525238D02*
X47459571Y37430000D01*
X47459571Y37430000D02*
X46792904Y37430000D01*
X46792904Y37430000D02*
X46411952Y37525238D01*
X46411952Y37525238D02*
X46221476Y37715714D01*
X46221476Y37715714D02*
X46126238Y37906190D01*
X46126238Y39620476D02*
X47745285Y39620476D01*
X47745285Y39620476D02*
X47935761Y39715714D01*
X47935761Y39715714D02*
X48031000Y39810952D01*
X48031000Y39810952D02*
X48126238Y40001428D01*
X48126238Y40001428D02*
X48126238Y40382381D01*
X48126238Y40382381D02*
X48031000Y40572857D01*
X48031000Y40572857D02*
X47935761Y40668095D01*
X47935761Y40668095D02*
X47745285Y40763333D01*
X47745285Y40763333D02*
X46126238Y40763333D01*
X46126238Y41430000D02*
X46126238Y42572857D01*
X48126238Y42001428D02*
X46126238Y42001428D01*
X47078619Y43239524D02*
X47078619Y43906191D01*
X48126238Y44191905D02*
X48126238Y43239524D01*
X48126238Y43239524D02*
X46126238Y43239524D01*
X46126238Y43239524D02*
X46126238Y44191905D01*
X46126238Y46953810D02*
X46126238Y47334763D01*
X46126238Y47334763D02*
X46221476Y47525239D01*
X46221476Y47525239D02*
X46411952Y47715715D01*
X46411952Y47715715D02*
X46792904Y47810953D01*
X46792904Y47810953D02*
X47459571Y47810953D01*
X47459571Y47810953D02*
X47840523Y47715715D01*
X47840523Y47715715D02*
X48031000Y47525239D01*
X48031000Y47525239D02*
X48126238Y47334763D01*
X48126238Y47334763D02*
X48126238Y46953810D01*
X48126238Y46953810D02*
X48031000Y46763334D01*
X48031000Y46763334D02*
X47840523Y46572858D01*
X47840523Y46572858D02*
X47459571Y46477620D01*
X47459571Y46477620D02*
X46792904Y46477620D01*
X46792904Y46477620D02*
X46411952Y46572858D01*
X46411952Y46572858D02*
X46221476Y46763334D01*
X46221476Y46763334D02*
X46126238Y46953810D01*
X46126238Y48668096D02*
X47745285Y48668096D01*
X47745285Y48668096D02*
X47935761Y48763334D01*
X47935761Y48763334D02*
X48031000Y48858572D01*
X48031000Y48858572D02*
X48126238Y49049048D01*
X48126238Y49049048D02*
X48126238Y49430001D01*
X48126238Y49430001D02*
X48031000Y49620477D01*
X48031000Y49620477D02*
X47935761Y49715715D01*
X47935761Y49715715D02*
X47745285Y49810953D01*
X47745285Y49810953D02*
X46126238Y49810953D01*
X46126238Y50477620D02*
X46126238Y51620477D01*
X48126238Y51049048D02*
X46126238Y51049048D01*
X-30719997Y837762D02*
X-30053331Y-1162238D01*
X-30053331Y-1162238D02*
X-29386664Y837762D01*
X-28719997Y-400333D02*
X-27196187Y-400333D01*
X-26339045Y-1067000D02*
X-26053331Y-1162238D01*
X-26053331Y-1162238D02*
X-25577140Y-1162238D01*
X-25577140Y-1162238D02*
X-25386664Y-1067000D01*
X-25386664Y-1067000D02*
X-25291426Y-971761D01*
X-25291426Y-971761D02*
X-25196188Y-781285D01*
X-25196188Y-781285D02*
X-25196188Y-590809D01*
X-25196188Y-590809D02*
X-25291426Y-400333D01*
X-25291426Y-400333D02*
X-25386664Y-305095D01*
X-25386664Y-305095D02*
X-25577140Y-209857D01*
X-25577140Y-209857D02*
X-25958093Y-114619D01*
X-25958093Y-114619D02*
X-26148569Y-19380D01*
X-26148569Y-19380D02*
X-26243807Y75858D01*
X-26243807Y75858D02*
X-26339045Y266334D01*
X-26339045Y266334D02*
X-26339045Y456810D01*
X-26339045Y456810D02*
X-26243807Y647286D01*
X-26243807Y647286D02*
X-26148569Y742524D01*
X-26148569Y742524D02*
X-25958093Y837762D01*
X-25958093Y837762D02*
X-25481902Y837762D01*
X-25481902Y837762D02*
X-25196188Y742524D01*
X-23196188Y-971761D02*
X-23291426Y-1067000D01*
X-23291426Y-1067000D02*
X-23577140Y-1162238D01*
X-23577140Y-1162238D02*
X-23767616Y-1162238D01*
X-23767616Y-1162238D02*
X-24053331Y-1067000D01*
X-24053331Y-1067000D02*
X-24243807Y-876523D01*
X-24243807Y-876523D02*
X-24339045Y-686047D01*
X-24339045Y-686047D02*
X-24434283Y-305095D01*
X-24434283Y-305095D02*
X-24434283Y-19380D01*
X-24434283Y-19380D02*
X-24339045Y361572D01*
X-24339045Y361572D02*
X-24243807Y552048D01*
X-24243807Y552048D02*
X-24053331Y742524D01*
X-24053331Y742524D02*
X-23767616Y837762D01*
X-23767616Y837762D02*
X-23577140Y837762D01*
X-23577140Y837762D02*
X-23291426Y742524D01*
X-23291426Y742524D02*
X-23196188Y647286D01*
X-21958093Y837762D02*
X-21577140Y837762D01*
X-21577140Y837762D02*
X-21386664Y742524D01*
X-21386664Y742524D02*
X-21196188Y552048D01*
X-21196188Y552048D02*
X-21100950Y171096D01*
X-21100950Y171096D02*
X-21100950Y-495571D01*
X-21100950Y-495571D02*
X-21196188Y-876523D01*
X-21196188Y-876523D02*
X-21386664Y-1067000D01*
X-21386664Y-1067000D02*
X-21577140Y-1162238D01*
X-21577140Y-1162238D02*
X-21958093Y-1162238D01*
X-21958093Y-1162238D02*
X-22148569Y-1067000D01*
X-22148569Y-1067000D02*
X-22339045Y-876523D01*
X-22339045Y-876523D02*
X-22434283Y-495571D01*
X-22434283Y-495571D02*
X-22434283Y171096D01*
X-22434283Y171096D02*
X-22339045Y552048D01*
X-22339045Y552048D02*
X-22148569Y742524D01*
X-22148569Y742524D02*
X-21958093Y837762D01*
X-19100950Y-1162238D02*
X-19767617Y-209857D01*
X-20243807Y-1162238D02*
X-20243807Y837762D01*
X-20243807Y837762D02*
X-19481902Y837762D01*
X-19481902Y837762D02*
X-19291426Y742524D01*
X-19291426Y742524D02*
X-19196188Y647286D01*
X-19196188Y647286D02*
X-19100950Y456810D01*
X-19100950Y456810D02*
X-19100950Y171096D01*
X-19100950Y171096D02*
X-19196188Y-19380D01*
X-19196188Y-19380D02*
X-19291426Y-114619D01*
X-19291426Y-114619D02*
X-19481902Y-209857D01*
X-19481902Y-209857D02*
X-20243807Y-209857D01*
X-18243807Y-114619D02*
X-17577140Y-114619D01*
X-17291426Y-1162238D02*
X-18243807Y-1162238D01*
X-18243807Y-1162238D02*
X-18243807Y837762D01*
X-18243807Y837762D02*
X-17291426Y837762D01*
X-30719997Y88197762D02*
X-30053331Y86197762D01*
X-30053331Y86197762D02*
X-29386664Y88197762D01*
X-28719997Y86959667D02*
X-27196187Y86959667D01*
X-26339045Y86293000D02*
X-26053331Y86197762D01*
X-26053331Y86197762D02*
X-25577140Y86197762D01*
X-25577140Y86197762D02*
X-25386664Y86293000D01*
X-25386664Y86293000D02*
X-25291426Y86388239D01*
X-25291426Y86388239D02*
X-25196188Y86578715D01*
X-25196188Y86578715D02*
X-25196188Y86769191D01*
X-25196188Y86769191D02*
X-25291426Y86959667D01*
X-25291426Y86959667D02*
X-25386664Y87054905D01*
X-25386664Y87054905D02*
X-25577140Y87150143D01*
X-25577140Y87150143D02*
X-25958093Y87245381D01*
X-25958093Y87245381D02*
X-26148569Y87340620D01*
X-26148569Y87340620D02*
X-26243807Y87435858D01*
X-26243807Y87435858D02*
X-26339045Y87626334D01*
X-26339045Y87626334D02*
X-26339045Y87816810D01*
X-26339045Y87816810D02*
X-26243807Y88007286D01*
X-26243807Y88007286D02*
X-26148569Y88102524D01*
X-26148569Y88102524D02*
X-25958093Y88197762D01*
X-25958093Y88197762D02*
X-25481902Y88197762D01*
X-25481902Y88197762D02*
X-25196188Y88102524D01*
X-23196188Y86388239D02*
X-23291426Y86293000D01*
X-23291426Y86293000D02*
X-23577140Y86197762D01*
X-23577140Y86197762D02*
X-23767616Y86197762D01*
X-23767616Y86197762D02*
X-24053331Y86293000D01*
X-24053331Y86293000D02*
X-24243807Y86483477D01*
X-24243807Y86483477D02*
X-24339045Y86673953D01*
X-24339045Y86673953D02*
X-24434283Y87054905D01*
X-24434283Y87054905D02*
X-24434283Y87340620D01*
X-24434283Y87340620D02*
X-24339045Y87721572D01*
X-24339045Y87721572D02*
X-24243807Y87912048D01*
X-24243807Y87912048D02*
X-24053331Y88102524D01*
X-24053331Y88102524D02*
X-23767616Y88197762D01*
X-23767616Y88197762D02*
X-23577140Y88197762D01*
X-23577140Y88197762D02*
X-23291426Y88102524D01*
X-23291426Y88102524D02*
X-23196188Y88007286D01*
X-21958093Y88197762D02*
X-21577140Y88197762D01*
X-21577140Y88197762D02*
X-21386664Y88102524D01*
X-21386664Y88102524D02*
X-21196188Y87912048D01*
X-21196188Y87912048D02*
X-21100950Y87531096D01*
X-21100950Y87531096D02*
X-21100950Y86864429D01*
X-21100950Y86864429D02*
X-21196188Y86483477D01*
X-21196188Y86483477D02*
X-21386664Y86293000D01*
X-21386664Y86293000D02*
X-21577140Y86197762D01*
X-21577140Y86197762D02*
X-21958093Y86197762D01*
X-21958093Y86197762D02*
X-22148569Y86293000D01*
X-22148569Y86293000D02*
X-22339045Y86483477D01*
X-22339045Y86483477D02*
X-22434283Y86864429D01*
X-22434283Y86864429D02*
X-22434283Y87531096D01*
X-22434283Y87531096D02*
X-22339045Y87912048D01*
X-22339045Y87912048D02*
X-22148569Y88102524D01*
X-22148569Y88102524D02*
X-21958093Y88197762D01*
X-19100950Y86197762D02*
X-19767617Y87150143D01*
X-20243807Y86197762D02*
X-20243807Y88197762D01*
X-20243807Y88197762D02*
X-19481902Y88197762D01*
X-19481902Y88197762D02*
X-19291426Y88102524D01*
X-19291426Y88102524D02*
X-19196188Y88007286D01*
X-19196188Y88007286D02*
X-19100950Y87816810D01*
X-19100950Y87816810D02*
X-19100950Y87531096D01*
X-19100950Y87531096D02*
X-19196188Y87340620D01*
X-19196188Y87340620D02*
X-19291426Y87245381D01*
X-19291426Y87245381D02*
X-19481902Y87150143D01*
X-19481902Y87150143D02*
X-20243807Y87150143D01*
X-18243807Y87245381D02*
X-17577140Y87245381D01*
X-17291426Y86197762D02*
X-18243807Y86197762D01*
X-18243807Y86197762D02*
X-18243807Y88197762D01*
X-18243807Y88197762D02*
X-17291426Y88197762D01*
X-30719997Y44517762D02*
X-30053331Y42517762D01*
X-30053331Y42517762D02*
X-29386664Y44517762D01*
X-28719997Y43279667D02*
X-27196187Y43279667D01*
X-26339045Y42613000D02*
X-26053331Y42517762D01*
X-26053331Y42517762D02*
X-25577140Y42517762D01*
X-25577140Y42517762D02*
X-25386664Y42613000D01*
X-25386664Y42613000D02*
X-25291426Y42708239D01*
X-25291426Y42708239D02*
X-25196188Y42898715D01*
X-25196188Y42898715D02*
X-25196188Y43089191D01*
X-25196188Y43089191D02*
X-25291426Y43279667D01*
X-25291426Y43279667D02*
X-25386664Y43374905D01*
X-25386664Y43374905D02*
X-25577140Y43470143D01*
X-25577140Y43470143D02*
X-25958093Y43565381D01*
X-25958093Y43565381D02*
X-26148569Y43660620D01*
X-26148569Y43660620D02*
X-26243807Y43755858D01*
X-26243807Y43755858D02*
X-26339045Y43946334D01*
X-26339045Y43946334D02*
X-26339045Y44136810D01*
X-26339045Y44136810D02*
X-26243807Y44327286D01*
X-26243807Y44327286D02*
X-26148569Y44422524D01*
X-26148569Y44422524D02*
X-25958093Y44517762D01*
X-25958093Y44517762D02*
X-25481902Y44517762D01*
X-25481902Y44517762D02*
X-25196188Y44422524D01*
X-23196188Y42708239D02*
X-23291426Y42613000D01*
X-23291426Y42613000D02*
X-23577140Y42517762D01*
X-23577140Y42517762D02*
X-23767616Y42517762D01*
X-23767616Y42517762D02*
X-24053331Y42613000D01*
X-24053331Y42613000D02*
X-24243807Y42803477D01*
X-24243807Y42803477D02*
X-24339045Y42993953D01*
X-24339045Y42993953D02*
X-24434283Y43374905D01*
X-24434283Y43374905D02*
X-24434283Y43660620D01*
X-24434283Y43660620D02*
X-24339045Y44041572D01*
X-24339045Y44041572D02*
X-24243807Y44232048D01*
X-24243807Y44232048D02*
X-24053331Y44422524D01*
X-24053331Y44422524D02*
X-23767616Y44517762D01*
X-23767616Y44517762D02*
X-23577140Y44517762D01*
X-23577140Y44517762D02*
X-23291426Y44422524D01*
X-23291426Y44422524D02*
X-23196188Y44327286D01*
X-21958093Y44517762D02*
X-21577140Y44517762D01*
X-21577140Y44517762D02*
X-21386664Y44422524D01*
X-21386664Y44422524D02*
X-21196188Y44232048D01*
X-21196188Y44232048D02*
X-21100950Y43851096D01*
X-21100950Y43851096D02*
X-21100950Y43184429D01*
X-21100950Y43184429D02*
X-21196188Y42803477D01*
X-21196188Y42803477D02*
X-21386664Y42613000D01*
X-21386664Y42613000D02*
X-21577140Y42517762D01*
X-21577140Y42517762D02*
X-21958093Y42517762D01*
X-21958093Y42517762D02*
X-22148569Y42613000D01*
X-22148569Y42613000D02*
X-22339045Y42803477D01*
X-22339045Y42803477D02*
X-22434283Y43184429D01*
X-22434283Y43184429D02*
X-22434283Y43851096D01*
X-22434283Y43851096D02*
X-22339045Y44232048D01*
X-22339045Y44232048D02*
X-22148569Y44422524D01*
X-22148569Y44422524D02*
X-21958093Y44517762D01*
X-19100950Y42517762D02*
X-19767617Y43470143D01*
X-20243807Y42517762D02*
X-20243807Y44517762D01*
X-20243807Y44517762D02*
X-19481902Y44517762D01*
X-19481902Y44517762D02*
X-19291426Y44422524D01*
X-19291426Y44422524D02*
X-19196188Y44327286D01*
X-19196188Y44327286D02*
X-19100950Y44136810D01*
X-19100950Y44136810D02*
X-19100950Y43851096D01*
X-19100950Y43851096D02*
X-19196188Y43660620D01*
X-19196188Y43660620D02*
X-19291426Y43565381D01*
X-19291426Y43565381D02*
X-19481902Y43470143D01*
X-19481902Y43470143D02*
X-20243807Y43470143D01*
X-18243807Y43565381D02*
X-17577140Y43565381D01*
X-17291426Y42517762D02*
X-18243807Y42517762D01*
X-18243807Y42517762D02*
X-18243807Y44517762D01*
X-18243807Y44517762D02*
X-17291426Y44517762D01*
X-3173762Y36668095D02*
X-4126143Y36001428D01*
X-3173762Y35525238D02*
X-5173762Y35525238D01*
X-5173762Y35525238D02*
X-5173762Y36287143D01*
X-5173762Y36287143D02*
X-5078524Y36477619D01*
X-5078524Y36477619D02*
X-4983286Y36572857D01*
X-4983286Y36572857D02*
X-4792810Y36668095D01*
X-4792810Y36668095D02*
X-4507096Y36668095D01*
X-4507096Y36668095D02*
X-4316620Y36572857D01*
X-4316620Y36572857D02*
X-4221381Y36477619D01*
X-4221381Y36477619D02*
X-4126143Y36287143D01*
X-4126143Y36287143D02*
X-4126143Y35525238D01*
X-5173762Y37906190D02*
X-5173762Y38287143D01*
X-5173762Y38287143D02*
X-5078524Y38477619D01*
X-5078524Y38477619D02*
X-4888048Y38668095D01*
X-4888048Y38668095D02*
X-4507096Y38763333D01*
X-4507096Y38763333D02*
X-3840429Y38763333D01*
X-3840429Y38763333D02*
X-3459477Y38668095D01*
X-3459477Y38668095D02*
X-3269000Y38477619D01*
X-3269000Y38477619D02*
X-3173762Y38287143D01*
X-3173762Y38287143D02*
X-3173762Y37906190D01*
X-3173762Y37906190D02*
X-3269000Y37715714D01*
X-3269000Y37715714D02*
X-3459477Y37525238D01*
X-3459477Y37525238D02*
X-3840429Y37430000D01*
X-3840429Y37430000D02*
X-4507096Y37430000D01*
X-4507096Y37430000D02*
X-4888048Y37525238D01*
X-4888048Y37525238D02*
X-5078524Y37715714D01*
X-5078524Y37715714D02*
X-5173762Y37906190D01*
X-5173762Y39620476D02*
X-3554715Y39620476D01*
X-3554715Y39620476D02*
X-3364239Y39715714D01*
X-3364239Y39715714D02*
X-3269000Y39810952D01*
X-3269000Y39810952D02*
X-3173762Y40001428D01*
X-3173762Y40001428D02*
X-3173762Y40382381D01*
X-3173762Y40382381D02*
X-3269000Y40572857D01*
X-3269000Y40572857D02*
X-3364239Y40668095D01*
X-3364239Y40668095D02*
X-3554715Y40763333D01*
X-3554715Y40763333D02*
X-5173762Y40763333D01*
X-5173762Y41430000D02*
X-5173762Y42572857D01*
X-3173762Y42001428D02*
X-5173762Y42001428D01*
X-4221381Y43239524D02*
X-4221381Y43906191D01*
X-3173762Y44191905D02*
X-3173762Y43239524D01*
X-3173762Y43239524D02*
X-5173762Y43239524D01*
X-5173762Y43239524D02*
X-5173762Y44191905D01*
X-5173762Y46953810D02*
X-5173762Y47334763D01*
X-5173762Y47334763D02*
X-5078524Y47525239D01*
X-5078524Y47525239D02*
X-4888048Y47715715D01*
X-4888048Y47715715D02*
X-4507096Y47810953D01*
X-4507096Y47810953D02*
X-3840429Y47810953D01*
X-3840429Y47810953D02*
X-3459477Y47715715D01*
X-3459477Y47715715D02*
X-3269000Y47525239D01*
X-3269000Y47525239D02*
X-3173762Y47334763D01*
X-3173762Y47334763D02*
X-3173762Y46953810D01*
X-3173762Y46953810D02*
X-3269000Y46763334D01*
X-3269000Y46763334D02*
X-3459477Y46572858D01*
X-3459477Y46572858D02*
X-3840429Y46477620D01*
X-3840429Y46477620D02*
X-4507096Y46477620D01*
X-4507096Y46477620D02*
X-4888048Y46572858D01*
X-4888048Y46572858D02*
X-5078524Y46763334D01*
X-5078524Y46763334D02*
X-5173762Y46953810D01*
X-5173762Y48668096D02*
X-3554715Y48668096D01*
X-3554715Y48668096D02*
X-3364239Y48763334D01*
X-3364239Y48763334D02*
X-3269000Y48858572D01*
X-3269000Y48858572D02*
X-3173762Y49049048D01*
X-3173762Y49049048D02*
X-3173762Y49430001D01*
X-3173762Y49430001D02*
X-3269000Y49620477D01*
X-3269000Y49620477D02*
X-3364239Y49715715D01*
X-3364239Y49715715D02*
X-3554715Y49810953D01*
X-3554715Y49810953D02*
X-5173762Y49810953D01*
X-5173762Y50477620D02*
X-5173762Y51620477D01*
X-3173762Y51049048D02*
X-5173762Y51049048D01*
X93616238Y96314950D02*
X95616238Y96981616D01*
X95616238Y96981616D02*
X93616238Y97648283D01*
X94854333Y98314950D02*
X94854333Y99838759D01*
X95521000Y100695902D02*
X95616238Y100981616D01*
X95616238Y100981616D02*
X95616238Y101457807D01*
X95616238Y101457807D02*
X95521000Y101648283D01*
X95521000Y101648283D02*
X95425761Y101743521D01*
X95425761Y101743521D02*
X95235285Y101838759D01*
X95235285Y101838759D02*
X95044809Y101838759D01*
X95044809Y101838759D02*
X94854333Y101743521D01*
X94854333Y101743521D02*
X94759095Y101648283D01*
X94759095Y101648283D02*
X94663857Y101457807D01*
X94663857Y101457807D02*
X94568619Y101076854D01*
X94568619Y101076854D02*
X94473380Y100886378D01*
X94473380Y100886378D02*
X94378142Y100791140D01*
X94378142Y100791140D02*
X94187666Y100695902D01*
X94187666Y100695902D02*
X93997190Y100695902D01*
X93997190Y100695902D02*
X93806714Y100791140D01*
X93806714Y100791140D02*
X93711476Y100886378D01*
X93711476Y100886378D02*
X93616238Y101076854D01*
X93616238Y101076854D02*
X93616238Y101553045D01*
X93616238Y101553045D02*
X93711476Y101838759D01*
X95425761Y103838759D02*
X95521000Y103743521D01*
X95521000Y103743521D02*
X95616238Y103457807D01*
X95616238Y103457807D02*
X95616238Y103267331D01*
X95616238Y103267331D02*
X95521000Y102981616D01*
X95521000Y102981616D02*
X95330523Y102791140D01*
X95330523Y102791140D02*
X95140047Y102695902D01*
X95140047Y102695902D02*
X94759095Y102600664D01*
X94759095Y102600664D02*
X94473380Y102600664D01*
X94473380Y102600664D02*
X94092428Y102695902D01*
X94092428Y102695902D02*
X93901952Y102791140D01*
X93901952Y102791140D02*
X93711476Y102981616D01*
X93711476Y102981616D02*
X93616238Y103267331D01*
X93616238Y103267331D02*
X93616238Y103457807D01*
X93616238Y103457807D02*
X93711476Y103743521D01*
X93711476Y103743521D02*
X93806714Y103838759D01*
X93616238Y105076854D02*
X93616238Y105457807D01*
X93616238Y105457807D02*
X93711476Y105648283D01*
X93711476Y105648283D02*
X93901952Y105838759D01*
X93901952Y105838759D02*
X94282904Y105933997D01*
X94282904Y105933997D02*
X94949571Y105933997D01*
X94949571Y105933997D02*
X95330523Y105838759D01*
X95330523Y105838759D02*
X95521000Y105648283D01*
X95521000Y105648283D02*
X95616238Y105457807D01*
X95616238Y105457807D02*
X95616238Y105076854D01*
X95616238Y105076854D02*
X95521000Y104886378D01*
X95521000Y104886378D02*
X95330523Y104695902D01*
X95330523Y104695902D02*
X94949571Y104600664D01*
X94949571Y104600664D02*
X94282904Y104600664D01*
X94282904Y104600664D02*
X93901952Y104695902D01*
X93901952Y104695902D02*
X93711476Y104886378D01*
X93711476Y104886378D02*
X93616238Y105076854D01*
X95616238Y107933997D02*
X94663857Y107267330D01*
X95616238Y106791140D02*
X93616238Y106791140D01*
X93616238Y106791140D02*
X93616238Y107553045D01*
X93616238Y107553045D02*
X93711476Y107743521D01*
X93711476Y107743521D02*
X93806714Y107838759D01*
X93806714Y107838759D02*
X93997190Y107933997D01*
X93997190Y107933997D02*
X94282904Y107933997D01*
X94282904Y107933997D02*
X94473380Y107838759D01*
X94473380Y107838759D02*
X94568619Y107743521D01*
X94568619Y107743521D02*
X94663857Y107553045D01*
X94663857Y107553045D02*
X94663857Y106791140D01*
X94568619Y108791140D02*
X94568619Y109457807D01*
X95616238Y109743521D02*
X95616238Y108791140D01*
X95616238Y108791140D02*
X93616238Y108791140D01*
X93616238Y108791140D02*
X93616238Y109743521D01*
M02*
